# Ori Studio folded form (65%)
o folded
v 0 0.012761 -0.908959
v 0.458829 0.097739 -0.344908
v 0.421396 -0.07431 -0.215051
v 0.395651 0.129515 0.001994
v 0.378978 -0.137344 0.445231
v 0.197972 0.184187 0.531533
v 0 -0.137105 0.49729
v -0.197971 0.184187 0.531533
v -0.378977 -0.137344 0.445231
v -0.39565 0.129515 0.001994
v -0.421395 -0.07431 -0.215051
v -0.458828 0.097739 -0.344908
v -0.513349 -0.063237 -0.42865
v 0.51335 -0.063236 -0.42865
v 0.377702 -0.074378 0.623926
v -0.377701 -0.074378 0.623926
f 1 2 3
f 1 14 2
f 1 3 4
f 1 4 5
f 1 5 6
f 5 15 6
f 1 6 7
f 1 7 8
f 1 8 9
f 8 16 9
f 1 9 10
f 1 10 11
f 1 11 12
f 1 12 13
